<svg width="30" height="30" viewBox="0 0 30 30" fill="none" xmlns="http://www.w3.org/2000/svg">
<path d="M15 0C6.54 0 0 6.19523 0 14.5505C0 18.9157 1.785 22.7108 4.71 25.3059C4.95 25.501 5.1 25.831 5.115 26.161L5.19 28.8311C5.25 29.6861 6.105 30.2411 6.885 29.8961L9.855 28.5911C10.11 28.5011 10.395 28.4561 10.65 28.5011C12 28.9061 13.5 29.1011 15 29.1011C23.46 29.1011 30 22.9059 30 14.5505C30 6.19523 23.46 0 15 0ZM24 11.1904L19.605 18.1957C18.9 19.2907 17.4 19.5757 16.35 18.7507L12.84 16.1556C12.525 15.9156 12.075 15.9156 11.76 16.1556L7.02 19.7557C6.39 20.2508 5.565 19.5007 6 18.8107L10.395 11.8054C11.1 10.7104 12.6 10.4254 13.65 11.2054L17.16 13.8455C17.49 14.0855 17.925 14.0855 18.24 13.8455L22.98 10.2454C23.61 9.75036 24.435 10.5004 24 11.1904Z" fill="#222831"/>
</svg>
