<svg width="740" height="582" viewBox="0 0 740 582" fill="none" xmlns="http://www.w3.org/2000/svg">
<path d="M215.501 468.873C213.616 469.092 211.4 469.207 210.951 470.972C210.603 472.341 210.735 473.748 211.776 474.934C213.559 476.962 216.204 478.145 219.392 477.728C222.242 477.354 226.155 475.323 226.155 472.801C226.155 471.378 224.852 469.947 223.775 468.883C222.62 467.743 221.622 466.542 220.168 465.61C218.206 464.351 216.623 464.228 214.86 465.712C213.895 466.523 212.982 467.631 212.561 468.694C212.352 469.217 212.504 469.637 212.504 470.163C212.504 470.864 212.339 469.831 212.504 469.484" stroke="#001D3D" stroke-linecap="round" stroke-linejoin="round"/>
<path d="M225.267 472.88C226.871 474.001 228.229 475.013 231.065 475.067C233.051 475.105 235.035 474.715 236.896 474.296C238.227 473.996 242.498 472.405 239.038 472.277" stroke="#001D3D" stroke-linecap="round" stroke-linejoin="round"/>
<path d="M241.803 463.112C239.687 464.951 236.767 468.552 237.863 471.311C238.25 472.283 238.809 472.936 239.534 473.766C240.994 475.435 243.255 474.915 245.306 474.479C246.792 474.162 248.559 473.168 249.128 472.034C249.913 470.472 248.276 468.029 246.908 466.953C245.381 465.752 244.172 464.29 242.47 463.238C242.017 462.959 241.673 462.655 241.081 462.759C240.419 462.874 240.144 463.374 241.027 463.374" stroke="#001D3D" stroke-linecap="round" stroke-linejoin="round"/>
<path d="M391.403 211.266C389.519 211.485 387.301 211.602 386.853 213.365C386.506 214.734 386.636 216.141 387.679 217.327C389.46 219.355 392.106 220.538 395.294 220.121C398.142 219.747 402.056 217.716 402.056 215.195C402.056 213.771 400.755 212.34 399.677 211.276C398.523 210.136 397.524 208.936 396.071 208.003C394.109 206.744 392.525 206.621 390.761 208.105C389.797 208.917 388.884 210.024 388.461 211.087C388.254 211.611 388.406 212.03 388.406 212.556C388.406 213.257 388.242 212.224 388.406 211.877" stroke="#001D3D" stroke-linecap="round" stroke-linejoin="round"/>
<path d="M401.169 215.274C402.773 216.394 404.131 217.406 406.967 217.462C408.952 217.499 410.938 217.11 412.798 216.689C414.13 216.39 418.399 214.8 414.939 214.67" stroke="#001D3D" stroke-linecap="round" stroke-linejoin="round"/>
<path d="M417.706 205.505C415.589 207.344 412.668 210.945 413.766 213.706C414.15 214.676 414.711 215.33 415.437 216.159C416.894 217.828 419.155 217.308 421.206 216.872C422.695 216.557 424.459 215.561 425.028 214.429C425.815 212.865 424.179 210.422 422.81 209.346C421.282 208.145 420.072 206.684 418.37 205.631C417.917 205.352 417.573 205.048 416.984 205.152C416.319 205.269 416.047 205.767 416.927 205.767" stroke="#001D3D" stroke-linecap="round" stroke-linejoin="round"/>
<path d="M229.091 157.837C239.955 153.766 248.738 147.035 257.569 140.687C264.511 135.698 271.789 130.769 279.45 126.463C280.962 125.614 283.097 123.904 285.14 124.633C287.165 125.355 288.334 127.321 289.934 128.485C293.874 131.352 297.417 134.855 300.658 138.224C304.225 141.932 298.877 143.985 295.569 146.413C291.814 149.171 288.226 152.015 284.123 154.449C280.224 156.762 277.091 159.951 273.521 162.57C268.079 166.561 262.991 170.809 257.567 174.805C254.336 177.184 250.63 179.125 247.522 181.587C246.432 182.451 245.424 183.591 244.167 184.31C243.157 184.887 241.76 182.668 241.401 182.249C238.548 178.931 234.131 176.663 231.337 173.193C229.583 171.01 228.402 168.318 226.3 166.326C225.295 165.374 222.787 163.233 223.887 161.844C225.009 160.426 228.194 159.746 229.933 158.729C231.287 157.938 232.933 156.96 234.476 156.409C235.596 156.009 236.696 155.299 237.699 154.753C240.335 153.315 237.542 153.93 235.757 154.464" stroke="#001D3D" stroke-linecap="round" stroke-linejoin="round"/>
<path d="M230.75 164.349C237.365 167.571 243.297 172.23 248.461 176.827C248.591 176.944 249.848 177.632 249.656 177.887C249.286 178.38 244.993 176.157 244.584 175.935" stroke="#001D3D" stroke-linecap="round" stroke-linejoin="round"/>
<path d="M237.306 159.694C242.669 160.902 245.865 163.2 250.195 165.659C252.122 166.754 254.088 167.742 255.818 169.029C256.632 169.634 257.211 170.432 257.961 171.082C258.99 171.976 254.788 170.045 254.292 169.823" stroke="#001D3D" stroke-linecap="round" stroke-linejoin="round"/>
<path d="M245.099 156.085C248.851 158.749 252.623 161.375 256.493 163.932C257.963 164.903 259.632 165.795 260.903 166.938C263.157 168.969 260.206 166.334 259.201 165.59" stroke="#001D3D" stroke-linecap="round" stroke-linejoin="round"/>
<path d="M250.356 153.546C253.139 154.877 256.048 156.167 258.404 157.961C259.37 158.698 260.173 159.565 261.206 160.247C262.48 161.088 263.594 162.068 264.877 162.883C266.703 164.047 266.977 164.386 264.808 162.926" stroke="#001D3D" stroke-linecap="round" stroke-linejoin="round"/>
<path d="M257.136 149.638C260.206 151.528 263.048 153.447 265.615 155.753C266.752 156.774 267.669 157.953 269.112 158.736C270.435 159.454 271.362 159.661 269.813 158.495" stroke="#001D3D" stroke-linecap="round" stroke-linejoin="round"/>
<path d="M263.66 145.655C266.363 147.253 269.029 148.711 271.19 150.769C272.178 151.711 272.958 152.794 274.062 153.663C276.305 155.428 274.764 154.538 273.141 153.341" stroke="#001D3D" stroke-linecap="round" stroke-linejoin="round"/>
<path d="M269.679 141.522C273.475 144.378 276.654 147.723 280.456 150.544C283.017 152.443 279.348 149.4 278.748 148.859" stroke="#001D3D" stroke-linecap="round" stroke-linejoin="round"/>
<path d="M277.026 138.236C280.222 137.21 283.536 135.987 285.254 133.48C285.727 132.789 286.337 132.187 286.53 131.408C286.799 130.338 286.746 130.797 285.738 131.489" stroke="#001D3D" stroke-linecap="round" stroke-linejoin="round"/>
<path d="M282.17 141.687C284.703 139.838 287.535 137.819 289.391 135.472C290.318 134.302 292.08 132.873 289.614 134.566" stroke="#001D3D" stroke-linecap="round" stroke-linejoin="round"/>
<path d="M290.291 145.562C292.601 143.589 294.654 141.755 296.779 139.692C297.464 139.026 299.556 138.161 297.039 138.69" stroke="#001D3D" stroke-linecap="round" stroke-linejoin="round"/>
<path d="M288.456 144.565C290.871 142.937 293.603 141.041 295.518 138.985C296.028 138.437 296.421 137.826 296.888 137.256C297.673 136.302 297.722 136.624 296.535 136.722" stroke="#001D3D" stroke-linecap="round" stroke-linejoin="round"/>
<path d="M237.272 167.64C249.307 163.795 252.277 153.358 262.086 147.456C263.279 146.739 264.247 145.94 265.64 145.443C266.569 145.111 267.717 144.952 268.565 144.527C269.081 144.267 273.371 141.69 270.391 142.755" stroke="#001D3D" stroke-linecap="round" stroke-linejoin="round"/>
<path d="M231.669 164.848C233.019 163.556 234.218 162.452 235.932 161.518C236.212 161.364 236.645 161.339 236.877 161.134C237.335 160.728 238.028 160.135 238.205 159.612C238.9 157.553 242.295 157.934 244.098 156.901C245.814 155.919 247.465 154.925 249.215 153.954C251.141 152.885 252.033 151.947 253.58 150.577C255.001 149.319 256.382 148.046 257.886 146.854C259.116 145.879 261.049 144.993 261.834 143.745C262.718 142.338 264.977 140.726 267.012 140.987C267.709 141.077 272.842 143.416 269.488 141.92" stroke="#001D3D" stroke-linecap="round" stroke-linejoin="round"/>
<path d="M242.559 169.882C251.604 166.131 256.623 157.95 262.732 151.77C264.981 149.494 268.197 147.981 270.553 145.745C271.56 144.788 273.784 143.772 271.198 143.789" stroke="#001D3D" stroke-linecap="round" stroke-linejoin="round"/>
<path d="M245.788 172.2C253.983 168.236 259.232 160.864 265.194 155.022C267.906 152.364 270.525 149.651 273.269 147.014C274.522 145.812 276.705 145.062 273.904 146.292" stroke="#001D3D" stroke-linecap="round" stroke-linejoin="round"/>
<path d="M249.016 176.335C254.131 172.413 258.26 168.18 262.444 163.643C264.987 160.885 267.187 157.784 270.175 155.3C271.889 153.874 273.208 152.205 274.766 150.695C275.392 150.086 275.825 149.377 276.469 148.773C277.921 147.414 276.908 148.644 275.898 149.381" stroke="#001D3D" stroke-linecap="round" stroke-linejoin="round"/>
<path d="M250.22 178.054C252.765 176.093 256.493 174.205 258.191 171.663C258.807 170.739 260.332 168.51 261.401 167.944C262.816 167.197 263.489 165.609 264.52 164.61C265.591 163.569 266.64 162.554 267.803 161.564C268.894 160.635 269.242 159.006 270.592 158.207C272.096 157.317 272.828 155.94 274.028 154.878C275.067 153.958 277.045 153.006 278.331 152.303C279.045 151.914 279.545 151.384 280.354 151.095C281.995 150.508 280.93 150.809 279.427 150.764" stroke="#001D3D" stroke-linecap="round" stroke-linejoin="round"/>
<path d="M276.821 138.971C278.925 139.407 281.521 139.707 283.44 140.609C284.678 141.192 285.756 141.776 283.501 140.716" stroke="#001D3D" stroke-linecap="round" stroke-linejoin="round"/>
<path d="M279.006 136.207C282.009 136.824 284.132 137.516 286.581 138.771C288.181 139.592 287.925 139.365 286.258 138.575" stroke="#001D3D" stroke-linecap="round" stroke-linejoin="round"/>
<path d="M282.65 133.419C285.227 134.559 287.73 135.855 290.397 136.849C291.965 137.433 291.141 137.392 289.932 136.932" stroke="#001D3D" stroke-linecap="round" stroke-linejoin="round"/>
<path d="M284.725 131.19C287.435 132.161 289.936 133.128 292.432 134.349C293.571 134.906 292.538 134.942 291.674 134.492" stroke="#001D3D" stroke-linecap="round" stroke-linejoin="round"/>
<path d="M278.151 138C280.2 136.084 282.255 134.269 284.119 132.306C284.65 131.748 287.876 128.642 286.482 130.232" stroke="#001D3D" stroke-linecap="round" stroke-linejoin="round"/>
<path d="M280.303 141.363C282.969 139.509 286.809 137.038 287.671 134.269C287.923 133.454 288.472 132.64 289.277 132.079C290.094 131.511 290.946 131.254 289.728 132.212" stroke="#001D3D" stroke-linecap="round" stroke-linejoin="round"/>
<path d="M278.165 141.3C281.007 138.892 283.436 137.274 285.042 134.308C285.459 133.538 285.937 132.899 286.622 132.293C287.348 131.651 288.389 131.049 286.988 132.199" stroke="#001D3D" stroke-linecap="round" stroke-linejoin="round"/>
<path d="M288.726 142.486C290.035 143.138 291.347 143.743 292.707 144.286C293.27 144.51 292.574 144.076 292.335 144.006" stroke="#001D3D" stroke-linecap="round" stroke-linejoin="round"/>
<path d="M291.275 139.261C291.365 139.32 296.51 142.788 295.597 142.014" stroke="#001D3D" stroke-linecap="round" stroke-linejoin="round"/>
<path d="M294.333 138.004C295.467 138.863 298.944 141.375 297.72 140.595" stroke="#001D3D" stroke-linecap="round" stroke-linejoin="round"/>
<path d="M287.205 143.855C289.086 142.477 293.211 139.748 294.221 137.631C294.62 136.796 296.445 135.724 294.729 136.871" stroke="#001D3D" stroke-linecap="round" stroke-linejoin="round"/>
<path d="M287.443 144.266C287.62 144.379 291.218 147.426 291.985 145.948C292.377 145.194 292.888 144.212 293.847 143.796C295.532 143.066 295.843 140.769 297.569 140.153C299.527 139.454 299.344 138.282 297.521 137.866C296.805 137.702 297.37 136.592 296.626 136.68C295.945 136.76 295.585 136.562 294.825 136.672" stroke="#001D3D" stroke-linecap="round" stroke-linejoin="round"/>
<path d="M276.583 138.56C277.817 140.414 278.051 141.087 280.041 141.86C280.578 142.069 281.279 141.779 281.688 141.942C282.495 142.264 284.089 142.271 284.693 141.686C285.902 140.51 286.35 139.751 288.206 139.036C289.375 138.585 290.318 137.52 290.859 136.638C291.454 135.668 292.526 134.937 293.154 133.963C293.422 133.548 291.261 132.48 291.243 131.763C291.237 131.56 288.671 131.554 288.244 131.383C287.728 131.177 287.49 130.886 287.242 130.456C286.88 129.828 286.238 130.608 285.264 130.667" stroke="#001D3D" stroke-linecap="round" stroke-linejoin="round"/>
<path d="M233.854 162.084C236.77 162.955 239.311 164.079 241.935 165.322C244.212 166.402 246.786 166.976 249.051 168.024C250.661 168.767 252.334 170.468 253.523 171.584C253.92 171.957 254.216 172.306 254.497 172.725C255.141 173.687 254.471 171.361 254.401 171.106" stroke="#001D3D" stroke-linecap="round" stroke-linejoin="round"/>
<path d="M261.997 144.596C262.806 145.263 266.079 148.948 265.432 146.178" stroke="#001D3D" stroke-linecap="round" stroke-linejoin="round"/>
<path d="M268.734 400.349C269.079 401.751 269.962 402.662 270.645 403.938C271.11 404.808 271.98 405.481 272.464 406.334C272.989 407.254 273.771 408.337 274.501 409.157C275.127 409.859 275.536 410.526 276.327 411.146C277.722 412.243 278.777 413.551 280.177 414.632C282.214 416.204 285.664 418.255 288.632 418.125C289.586 418.084 290.641 418.316 291.576 418.205C292.377 418.109 293.351 418.077 294.156 418.186C295.475 418.365 296.909 418.186 298.173 418.4C298.854 418.517 299.596 418.348 300.287 418.447C301.182 418.578 302.231 418.61 303.144 418.61C306.13 418.61 309.109 418.597 312.087 418.3C313.701 418.138 315.299 418.559 316.897 418.335C318.395 418.125 320.394 418.343 321.802 417.857C323.537 417.26 325.26 416.322 326.6 415.27C327.271 414.742 327.779 414.111 328.235 413.458C328.832 412.601 329.164 411.675 329.763 410.82C331.857 407.836 333.051 404.516 334.744 401.406C335.145 400.673 335.801 400.08 336.279 399.402C336.399 399.231 336.454 399.012 336.651 398.847C337.391 398.234 335.976 398.168 335.326 397.935" stroke="#001D3D" stroke-linecap="round" stroke-linejoin="round"/>
<path d="M268.402 400.478C269.884 398.953 271.141 397.834 273.294 396.972C275.097 396.249 276.967 395.392 278.598 394.449C281.1 393.002 284.546 392.356 287.596 391.919C290.914 391.446 294.178 390.891 297.555 390.891C298.6 390.891 299.635 391.139 300.68 391.152C301.93 391.168 303.185 391.198 304.429 391.283C306.34 391.411 308.301 391.381 310.217 391.413C312.886 391.459 315.443 392.546 318.113 392.714C319.7 392.813 321.552 393 323.097 393.341C323.677 393.467 324.336 393.555 324.876 393.761C325.547 394.017 326.019 394.452 326.637 394.754C328.629 395.728 330.855 396.187 333.008 396.927C333.667 397.154 334.801 397.544 335.533 397.544C336.537 397.544 336.487 399.004 336.487 397.544" stroke="#001D3D" stroke-linecap="round" stroke-linejoin="round"/>
<path d="M336.32 398.457C335.09 399.754 334.214 400.247 332.469 401.004C331.099 401.599 329.581 402.02 328.046 402.24C326.612 402.445 325.047 402.608 323.595 402.699C322.386 402.776 321.154 402.666 319.918 402.776C317.127 403.027 314.309 403.593 311.617 404.21C307.773 405.094 304.061 405.187 300.09 405.357C295.754 405.541 291.41 405.28 287.163 404.588C285.729 404.354 284.215 404.564 282.757 404.519C281.151 404.469 279.578 404.122 278.067 403.711C277.431 403.539 276.845 403.272 276.179 403.153C275.398 403.013 274.603 403.069 273.828 402.921C272.749 402.715 271.489 402.344 270.576 401.849C270.179 401.633 269.584 401.454 269.273 401.128C269.181 401.032 269.065 400.821 269.065 400.707C269.065 400.437 268.783 400.506 269.23 400.739" stroke="#001D3D" stroke-linecap="round" stroke-linejoin="round"/>
<path d="M300.662 411.696C301.67 411.608 303.004 411.624 302.587 410.603C302.453 410.275 302.115 410.24 301.757 410.147C300.69 409.867 298.781 410.408 298.381 411.284C297.661 412.855 299.023 414.553 301.164 414.008C301.745 413.861 302.778 413.537 303.148 413.121C303.593 412.622 302.926 412.769 302.485 412.285" stroke="#001D3D" stroke-linecap="round" stroke-linejoin="round"/>
<path d="M297.592 410.001C299.202 409.493 300.025 409.283 301.652 409.283C302.308 409.283 302.636 409.247 303.213 409.544C304.168 410.035 304.498 410.969 304.398 411.791C304.313 412.486 304.022 413.437 303.711 414.096C303.479 414.585 302.908 414.67 302.325 414.763C301.79 414.846 300.625 414.611 300.204 414.795C299.759 414.99 298.395 415.056 298.049 414.694C297.732 414.36 297.391 414.218 297.159 413.813C296.939 413.428 296.84 413.058 296.663 412.675C296.419 412.149 295.98 410.71 296.888 410.393C297.419 410.206 297.647 410.096 298.257 410.096C298.429 410.096 298.578 410.196 298.755 410.196C299.009 410.196 298.263 410.067 298.007 410.067" stroke="#001D3D" stroke-linecap="round" stroke-linejoin="round"/>
<path d="M300.495 404.784C301.664 403.593 302.733 402.367 303.941 401.211C304.591 400.589 305.398 400.055 306.098 399.46C308.102 397.759 310.143 395.896 311.672 393.905C313.177 391.947 315.232 389.812 317.464 388.34C318.641 387.562 319.694 386.704 320.721 385.807C321.715 384.939 322.174 383.722 323.116 382.804C323.846 382.093 328.623 377.251 329.457 380.195C329.782 381.351 328.349 382.16 327.448 382.868C326.425 383.672 325.397 384.694 324.527 385.609C323.687 386.49 322.664 387.263 321.849 388.152C320.739 389.361 318.72 390.225 317.909 391.593C317.242 392.724 316.134 393.63 315.303 394.678C314.15 396.128 312.798 397.34 311.442 398.667C310.365 399.719 308.68 400.584 307.917 401.783C307.281 402.786 306.151 403.208 305.12 403.855C304.673 404.138 304.128 404.295 303.729 404.685C303.597 404.816 303.359 404.966 303.235 404.819C303.166 404.736 302.896 404.923 302.947 405.016C303.123 405.339 302.692 404.234 302.652 404.132" stroke="#001D3D" stroke-linecap="round" stroke-linejoin="round"/>
<path d="M299.832 405.109C300.149 405.237 302.154 406.433 302.154 405.468C302.154 405.176 302.632 404.69 302.798 404.392C302.926 404.167 301.78 404.383 301.611 404.556C301.387 404.781 300.956 404.963 301.656 404.979C302.194 404.99 302.615 404.81 303.024 404.559C303.142 404.487 304.723 404.683 303.315 404.653C302.564 404.637 301.837 404.653 301.117 404.653C300.495 404.653 301.755 404.522 301.936 404.522C302.083 404.522 300.885 405.082 300.68 404.899C300.629 404.855 300.542 404.733 300.743 404.653" stroke="#001D3D" stroke-linecap="round" stroke-linejoin="round"/>
<path d="M273.461 400.283C273.554 400.322 276.518 401.543 276.528 401.391C276.542 401.209 276.378 401.051 276.492 400.87C276.994 400.082 277.642 400.459 278.504 400.765C279.179 401.003 278.157 398.365 280.188 399.479C281.237 400.055 281.515 399.962 281.342 398.996C281.212 398.265 281.533 398.264 282.334 398.341C282.877 398.393 283.268 398.488 283.579 398.08C283.955 397.586 284.38 397.306 285.148 397.519C285.786 397.695 286.354 398.192 286.793 397.559C286.986 397.279 286.823 396.446 287.433 396.606C287.815 396.705 288.319 397.098 288.757 396.975C289.086 396.881 289.34 396.077 289.714 396.203C290.104 396.336 290.503 396.919 290.995 396.779C291.233 396.711 291.674 396.101 291.206 396.174" stroke="#001D3D" stroke-linecap="round" stroke-linejoin="round"/>
<path d="M285.154 399.11C286.181 399.767 290.031 403.281 291.162 400.656C291.363 400.186 291.395 399.255 291.963 400.026C292.43 400.661 293.134 401.102 293.898 400.501C294.404 400.103 294.63 399.426 295.354 399.218C296.018 399.027 296.506 400.008 297.059 399.436C297.504 398.972 297.289 398.178 296.634 397.899C296.421 397.808 296.36 398.122 296.266 398.197" stroke="#001D3D" stroke-linecap="round" stroke-linejoin="round"/>
<path d="M294.026 395.066C295.628 394.849 297.645 394.409 298.864 395.536C299.43 396.059 299.375 396.727 299.003 397.319C298.73 397.752 297.996 397.968 297.529 397.544C297.145 397.196 297.935 396.622 298.22 396.409C299.19 395.682 300.629 396.847 300.932 397.639C301.186 398.299 298.891 399.829 299.167 399.174" stroke="#001D3D" stroke-linecap="round" stroke-linejoin="round"/>
<path d="M320.979 397.282C321.455 397.154 324.514 396.379 323.927 397.659C323.626 398.317 322.471 398.67 321.715 398.884C321.357 398.987 320.432 398.969 321.034 398.558C321.554 398.203 322.286 398.037 322.969 398.08C325.63 398.249 321.908 400.654 321.144 400.987C319.66 401.631 317.639 402.307 316.086 401.522" stroke="#001D3D" stroke-linecap="round" stroke-linejoin="round"/>
<path d="M304.642 393.435C305.272 394.243 306.033 395.053 306.571 395.902C306.756 396.195 305.953 395.447 305.766 395.156C305.716 395.079 305.37 394.222 305.337 394.228C304.933 394.299 304.837 395.754 304.73 396.022C304.213 397.292 302.936 396.806 301.684 396.71C300.168 396.596 299.491 397.771 298.651 398.523C297.982 399.123 297.718 399.306 298.173 400.023C298.541 400.602 298.694 401.163 298.173 401.686C297.767 402.093 297.258 402.352 296.768 402.69C296.319 402.998 296.962 402.947 296.878 402.762C296.649 402.255 295.23 402.36 294.764 402.384C293.038 402.474 291.279 402.135 289.586 402.218C288.685 402.263 287.838 402.658 286.945 402.762C286.038 402.867 287.238 403.486 287.575 403.663C288.161 403.97 286.433 403.013 285.799 402.776C284.733 402.379 283.751 402.072 283.2 401.196C282.647 400.317 282.162 399.717 281.228 399.073C280.905 398.851 280.869 398.512 281.025 398.211C281.389 397.512 282.196 396.943 282.997 396.566" stroke="#001D3D" stroke-linecap="round" stroke-linejoin="round"/>
<path d="M304.475 396.043C302.398 394.903 300.682 394.411 298.238 394.152C297.378 394.062 296.461 393.594 295.902 393.075C295.404 392.617 295.687 392.738 295.099 393.362C294.298 394.214 293.705 393.45 292.682 393.673C291.113 394.017 289.767 395.165 288.175 395.376C287.74 395.435 287.846 394.861 287.301 395.109C286.384 395.525 285.681 395.918 284.609 396.051C283.961 396.131 282.733 396.467 282.83 397.087" stroke="#001D3D" stroke-linecap="round" stroke-linejoin="round"/>
<path d="M318.574 396.043C320.579 396.197 322.612 396.176 324.608 396.344C325.311 396.404 325.671 396.627 326.165 396.99C326.612 397.316 327.31 398.085 327.948 398.126C328.873 398.187 329.349 397.887 330.211 397.674C330.729 397.546 332.386 397.674 331.841 397.674" stroke="#001D3D" stroke-linecap="round" stroke-linejoin="round"/>
<path d="M317.082 397.805C314.925 398.923 313.772 400.617 311.465 401.634C311.007 401.836 309.609 402.226 309.714 402.888C309.79 403.368 314.461 401.868 315.173 401.588" stroke="#001D3D" stroke-linecap="round" stroke-linejoin="round"/>
<path d="M325.124 399.37C326.297 400.056 327.308 401.038 328.773 400.689C329.17 400.595 329.999 400.558 330.266 400.349" stroke="#001D3D" stroke-linecap="round" stroke-linejoin="round"/>
<path d="M614.936 370.937C608.88 371.852 604.478 373.227 600.64 377.107C598.207 379.566 598.741 383.439 600.335 386.047C602.962 390.343 609.416 392.768 615.241 392.98C622.027 393.226 631.46 391.657 632.85 385.292C633.597 381.88 629.453 378.653 627.512 375.855C625.932 373.58 623.556 370.512 620.232 369.548C618.876 369.156 615.727 369.292 614.741 370.353C614.3 370.828 613.732 371.329 613.411 371.863C613.151 372.295 613.43 370.763 613.366 370.32" stroke="#001D3D" stroke-linecap="round" stroke-linejoin="round"/>
<path d="M617.487 382.66C615.853 383.322 613.2 383.759 614.631 385.206C614.958 385.537 615.422 385.517 615.818 385.206C616.158 384.94 617.865 383.541 616.603 383.21C614.029 382.536 614.97 386.574 616.81 384.787C617.798 383.826 616.416 382.881 615.176 383.466C613.7 384.163 614.867 385.38 616.026 384.323C616.9 383.527 616.202 382.918 615.253 383.664C614.401 384.333 615.265 385.399 616.103 384.496C616.961 383.567 615.983 382.782 614.948 383.596C613.749 384.537 615.046 384.438 615.896 383.818C616.751 383.193 615.233 383.285 614.741 383.775C613.596 384.913 615.389 384.752 615.678 383.775C616.101 382.34 614.22 385.637 615.133 383.124" stroke="#001D3D" stroke-linecap="round" stroke-linejoin="round"/>
<path d="M610.817 377.878C612.559 379.686 614.344 381.402 615.808 383.21C616.215 383.711 615.889 384.213 616.113 384.203C616.938 384.168 617.784 384.05 618.662 384.05C620.675 384.05 622.261 383.277 624.198 383.277C626.548 383.277 629.998 382.798 626.117 381.272" stroke="#001D3D" stroke-linecap="round" stroke-linejoin="round"/>
<path d="M608.855 370.782C608.489 369.324 606.698 365.789 610.032 366.163C611.228 366.297 612.031 367.271 612.734 367.885C614.566 369.485 614.371 371.417 611.405 371.554C610.628 371.589 609.536 372.801 608.66 371.94C607.668 370.964 608.681 371.03 608.855 369.856C608.971 369.089 608.335 369.153 608.06 368.4C607.851 367.822 608.286 367.189 608.463 366.772" stroke="#001D3D" stroke-linecap="round" stroke-linejoin="round"/>
<path d="M610.032 369.086C610.016 369.453 609.292 372.774 610.827 372.231C611.342 372.048 611.787 371.784 611.994 371.366C612.195 370.959 611.982 370.716 611.754 370.32C611.169 369.297 609.473 367.707 609.99 370.011C610.315 371.465 612.378 371.124 612.539 369.736C612.661 368.676 610.961 367.256 609.88 368.468C609.116 369.325 610.478 371.214 611.275 369.891C611.679 369.22 610.711 367.511 609.685 368.348C608.63 369.207 610.213 371.019 611.254 370.285C612.281 369.56 611.582 367.351 610.469 368.193C609.449 368.966 610.978 370.501 611.754 369.325C612.62 368.014 610.713 367.026 610.12 368.4C609.591 369.626 611.242 370.945 611.624 369.274C611.915 368.001 608.943 367.325 608.943 368.846C608.943 370.246 610.535 370.102 610.535 368.828C610.535 367.501 608.833 367.798 609.542 368.914C610.252 370.029 611.201 368.049 610.402 367.423C609.471 366.69 608.239 367.822 609.335 368.527C610.083 369.009 611.104 367.013 609.847 366.642C608.762 366.323 609.361 368.065 609.738 367.67C610.321 367.06 609.429 366.65 610.045 366.772C610.587 366.877 611.905 367.106 612.277 367.483C612.572 367.779 613.759 369.428 613.759 369.856C613.759 371.167 611.212 371.874 609.75 371.545C608.701 371.31 608.39 371.892 608.758 371.7C609.65 371.231 609.837 370.011 609.837 370.473" stroke="#001D3D" stroke-linecap="round" stroke-linejoin="round"/>
<path d="M609.837 392.842C608.827 394.527 607.93 396.22 606.741 397.813C606.475 398.173 605.973 398.903 605.914 399.322C605.755 400.448 607.192 396.638 607.483 396.083" stroke="#001D3D" stroke-linecap="round" stroke-linejoin="round"/>
<path d="M629.648 389.603C632.133 392.07 634.871 393.828 636.807 396.537C636.998 396.802 637.329 397.015 637.591 397.221C638.474 397.915 635.957 395.742 635.14 395.002" stroke="#001D3D" stroke-linecap="round" stroke-linejoin="round"/>
<path d="M465.112 245.765C466.668 250.377 472.665 267.517 474.1 273.778C478.05 291.022 471.852 267.493 471.835 275.109" stroke="#001D3D" stroke-width="2" stroke-linecap="round" stroke-linejoin="round"/>
<path d="M454.588 253.22C454.057 246.204 452.057 236.466 464.566 237.469C470.449 237.94 476.932 240.687 480.6 244.363C486.269 250.043 483.279 258.848 477.154 263.368C473.893 265.773 470.729 266.978 466.462 267.888C459.235 269.428 464.94 261.532 466.102 259.369" stroke="#001D3D" stroke-width="2" stroke-linecap="round" stroke-linejoin="round"/>
<path d="M487.121 261.794C499.551 261.272 510.99 259.347 515.436 269.949C518.02 276.109 521.167 283.594 519.012 290.087C517.067 295.953 512.875 299.621 505.211 297.122C494.257 293.55 494.271 286.827 500.234 280.123C502.427 277.654 510.834 272.71 510.84 269.824" stroke="#001D3D" stroke-width="2" stroke-linecap="round" stroke-linejoin="round"/>
<path d="M509.523 250.354C509.1 252.927 509.092 271.121 502.832 271.295C501.657 271.329 500.671 271.808 499.646 272.21C495.704 273.754 498.101 272.365 499.573 270.758C502.907 267.119 509.657 268.464 513.037 263.633C516.709 258.389 518.398 255.81 513.137 251.752C509.449 248.909 511.07 244.072 508.167 250.887" stroke="#001D3D" stroke-width="2" stroke-linecap="round" stroke-linejoin="round"/>
<path d="M527.866 233.844C532.67 242.349 537.061 253.426 544.766 260.829C546.803 262.786 547.946 261.083 547.915 259.559C547.874 257.633 547.185 255.69 546.476 253.867" stroke="#001D3D" stroke-width="2" stroke-linecap="round" stroke-linejoin="round"/>
<path d="M513.92 255.96C521.541 253.602 540.255 251.216 543.445 243.73" stroke="#001D3D" stroke-width="2" stroke-linecap="round" stroke-linejoin="round"/>
<path d="M537.36 234.122C570.394 279.566 538.21 247.625 555 239.314C565.193 234.269 566.043 258.047 568.867 247.762" stroke="#001D3D" stroke-width="2" stroke-linecap="round" stroke-linejoin="round"/>
<path d="M566.862 232.559C568.062 235.377 572.087 253.982 580.467 249.732C584.214 247.831 588.579 244.208 589.3 240.646C590.077 236.824 587.04 227.114 580.17 228.16C577.035 228.636 571.792 228.753 569.747 231.096C567.771 233.361 566.523 238.665 568.895 233.094" stroke="#001D3D" stroke-width="2" stroke-linecap="round" stroke-linejoin="round"/>
<path d="M590.268 228.054C599.636 223.323 610.646 221.771 612.071 232.91C612.25 234.309 612.285 236.07 613.1 237.357C614.046 238.85 612.104 233.708 610.264 232.88" stroke="#001D3D" stroke-width="2" stroke-linecap="round" stroke-linejoin="round"/>
<path d="M589.581 232.32C590.006 238.144 588.946 246.033 592.407 251.494C592.525 251.681 593.346 253.106 592.931 252.326C592.112 250.78 591.772 249.731 590.227 248.055" stroke="#001D3D" stroke-width="2" stroke-linecap="round" stroke-linejoin="round"/>
<path d="M352.484 285.036C351.185 294.502 353.448 323.643 333.008 321.83C328.747 321.451 324.876 320.891 322.851 317.734C320.731 314.427 318.979 311.551 318.767 307.795C318.507 303.18 320.843 301.004 325.586 298.923C327.249 298.192 323.675 301.148 323.358 301.434C321.274 303.318 328.347 301.022 331.048 300.55" stroke="#001D3D" stroke-width="2" stroke-linecap="round" stroke-linejoin="round"/>
<path d="M378.726 289.585C368.386 290.344 353.793 291.887 352.126 302.06C351.221 307.576 361.651 308.247 366.178 310.126C373.956 313.356 379.858 323.885 371.134 328.52C365.066 331.742 360.478 330.029 354.574 330.351C348.579 330.678 352.754 328.94 356.308 328.464" stroke="#001D3D" stroke-width="2" stroke-linecap="round" stroke-linejoin="round"/>
<path d="M434.746 39.1473C433.919 45.6774 433.414 52.2745 432.39 58.7892C432.292 59.416 431.507 61.8904 432.434 59.8899C433.113 58.4272 432.894 56.9028 433.984 55.5158C435.484 53.6054 442.264 46.328 445.45 47.0641C451.831 48.5394 445.389 57.8503 443.561 60.5183C442.931 61.4384 441.215 63.4345 442.103 64.4663C443.288 65.842 445.482 60.7581 445.573 60.6025" stroke="#001D3D" stroke-width="2" stroke-linecap="round" stroke-linejoin="round"/>
<path d="M459.955 43.4353C459.198 46.3528 452.843 60.7533 458.967 63.1387C460.693 63.8118 464.515 62.5412 465.704 61.4458C466.94 60.3051 466.294 58.5585 466.159 57.2346" stroke="#001D3D" stroke-width="2" stroke-linecap="round" stroke-linejoin="round"/>
<path d="M447.358 43.7499C454.075 45.3209 460.983 46.3669 467.656 47.9875C469.231 48.3701 469.823 48.5434 470.67 49.6486C471.99 51.3679 468.485 49.7975 467.881 49.2767" stroke="#001D3D" stroke-width="2" stroke-linecap="round" stroke-linejoin="round"/>
<path d="M477.733 53.9572C476.192 57.6177 474.742 61.3243 472.984 64.9263C472.632 65.6426 472.581 65.9045 472.392 65.3573C472.209 64.8305 472.035 64.52 472.331 63.9634C473.913 61.0059 477.603 56.7554 481.083 55.1034C484.842 53.3195 482.791 59.3116 482.285 60.5245C481.72 61.8867 480.191 65.6205 481.927 62.0076C482.962 59.8576 485.334 54.5139 489.333 55.2916C491.754 55.7626 491.195 58.3381 490.768 59.6999C489.978 62.2112 489.193 64.7056 488.402 67.2253C487.243 70.9073 487.869 68.9189 488.715 66.2284" stroke="#001D3D" stroke-width="2" stroke-linecap="round" stroke-linejoin="round"/>
<path d="M507.589 45.9425C505.178 52.7679 502.216 59.5739 500.138 66.4705C499.894 67.2792 499.362 70.2741 501 70.6308C502.556 70.9696 508.701 68.0655 507.199 67.0589" stroke="#001D3D" stroke-width="2" stroke-linecap="round" stroke-linejoin="round"/>
<path d="M89.8758 324.356C84.1699 332.882 78.4823 341.415 72.7611 349.934C71.1305 352.363 67.9117 359.791 67.5132 357.063C66.9728 353.364 69.8466 348.185 71.066 344.718C72.7869 339.827 76.2909 330.053 85.0223 330.09C91.6134 330.117 99.0232 337.718 100.045 342.461C100.767 345.81 102.865 342.029 105.714 341.018" stroke="#001D3D" stroke-width="2" stroke-linecap="round" stroke-linejoin="round"/>
<path d="M107.562 351.669C111.397 358.683 117.049 370.539 128.688 364.017C134.037 361.019 131.379 355.89 126.099 354.261C113.16 350.268 96.8564 361.417 93.6297 370.581C90.4036 379.742 103.139 382.551 111.9 383.456C116.748 383.957 115.66 380.698 119.832 379.563" stroke="#001D3D" stroke-width="2" stroke-linecap="round" stroke-linejoin="round"/>
<path d="M139.786 375.919C129.735 372.618 116.419 369.676 110.755 379.777C108.025 384.646 120.243 385.218 123.867 385.084C130.789 384.828 146.202 372.226 141.01 375.835C136.453 379 131.841 382.739 129.967 387.415C128.757 390.436 130.147 397.109 134.599 392.5" stroke="#001D3D" stroke-width="2" stroke-linecap="round" stroke-linejoin="round"/>
<path d="M178.873 382.238C164.285 383.34 146.995 383.915 141.819 396.807C139.275 403.144 145.245 407.55 152.437 409.41C157.463 410.71 162.587 407.889 165.637 405.026" stroke="#001D3D" stroke-width="2" stroke-linecap="round" stroke-linejoin="round"/>
<path d="M192.123 383.987C191.323 384.753 155.387 415.558 172.517 415.796C177.259 415.861 182.127 413.69 185.394 411.25" stroke="#001D3D" stroke-width="2" stroke-linecap="round" stroke-linejoin="round"/>
<path d="M161.685 389.593C168.584 393.334 175.387 397.297 182.955 400.189C184.921 400.94 188.196 401.3 189.55 402.858C190.31 403.732 189.115 401.654 188.982 401.351" stroke="#001D3D" stroke-width="2" stroke-linecap="round" stroke-linejoin="round"/>
<path d="M84.7231 142.958C90.5134 150.746 108.901 173.466 101.436 166.617C96.6647 162.239 93.0404 156.428 90.0151 151.248C86.8404 145.813 83.8595 136.114 95.9573 136.606C106.341 137.029 110.486 145.368 112.312 152.204C113.118 155.22 113.324 157.562 115.044 160.306C116.802 163.11 116.9 152.304 117.568 149.501" stroke="#001D3D" stroke-width="2" stroke-linecap="round" stroke-linejoin="round"/>
<path d="M122.133 127.119C122.455 128.297 127.461 155.229 134.725 150.049C137.784 147.868 138.456 142.493 138.849 139.548C140.076 130.343 135.132 129.206 126.916 127.258C122.997 126.329 122.194 126.371 121.117 129.545C118.907 136.061 122.391 134.23 126.855 130.607" stroke="#001D3D" stroke-width="2" stroke-linecap="round" stroke-linejoin="round"/>
<path d="M153.72 119.522C149.684 124.872 144.537 131.165 147.376 137.718C148.554 140.436 151.294 139.718 153.213 138.188C156.241 135.773 157.82 131.804 157.651 128.488C157.328 122.13 152.265 116.691 146.953 112.174C146.216 111.547 139.506 107.197 140.82 110.932C143.18 117.641 149.749 124.094 154.326 129.925C161.87 139.536 164.183 135.803 167.572 126.782" stroke="#001D3D" stroke-width="2" stroke-linecap="round" stroke-linejoin="round"/>
<path d="M168.289 121.185C170.794 123.022 190.561 134.127 191.174 124.277C191.23 123.384 189.782 123.105 189.304 122.343C188.074 120.381 186.035 119.086 184.926 118.057" stroke="#001D3D" stroke-width="2" stroke-linecap="round" stroke-linejoin="round"/>
<path d="M169.938 127.859C162.111 119.776 151.178 111.372 162.386 103.381C167.108 100.014 176.905 102.676 176.649 108.302C176.53 110.922 175.827 117.402 171.042 118.086C168.512 118.448 167.347 117.145 169.686 115.324" stroke="#001D3D" stroke-width="2" stroke-linecap="round" stroke-linejoin="round"/>
<path d="M187.805 94.3349C192.864 96.8672 228.922 113.626 210.036 120.951C207.092 122.093 204.502 119.432 202.937 117.72C199.41 113.861 209.686 108.386 210.115 104.299" stroke="#001D3D" stroke-width="2" stroke-linecap="round" stroke-linejoin="round"/>
<path d="M217.399 80.862C214.456 82.7537 197.561 94.5035 210.845 96.7754C218.184 98.0302 225.119 92.2795 230.695 89.409C239.681 84.7848 241.575 93.683 239.107 98.7053C237.595 101.781 224.974 111.846 228.428 103.844" stroke="#001D3D" stroke-width="2" stroke-linecap="round" stroke-linejoin="round"/>
<path d="M317.108 518.194C305.868 522.642 291.141 530.754 303.292 541.517C309.121 546.68 319.879 544.565 327.554 543.969C329.711 543.801 335.661 545.432 334.041 544.3C330.538 541.85 328.015 542.008 326.964 537.874" stroke="#001D3D" stroke-width="2" stroke-linecap="round" stroke-linejoin="round"/>
<path d="M350.469 515.214C350.469 521.729 350.392 526.393 358.894 528.928C362.563 530.023 364.869 531.027 365.843 534.262C366.944 537.918 363.7 543.215 359.862 545.26C355.115 547.79 349.154 548.671 343.813 546.951C339.241 545.476 344.295 543.733 346.678 542.047" stroke="#001D3D" stroke-width="2" stroke-linecap="round" stroke-linejoin="round"/>
<path d="M387.62 508.057C386.13 512.601 379.407 524.755 385.388 529.459C387.801 531.356 392.476 530.303 395.455 530.85C398.417 531.395 400.958 533.178 402.784 535.024C405.675 537.947 402.922 542.376 399.582 544.432C394.4 547.622 386.998 546.221 380.964 546.221C377.67 546.221 379.921 546.038 381.553 544.432" stroke="#001D3D" stroke-width="2" stroke-linecap="round" stroke-linejoin="round"/>
<path d="M374.55 451.506C380.391 449.752 391.224 446.963 396.874 443.82C402.836 440.502 396.593 439.548 393.42 440.341C388.043 441.684 384.796 446.113 382.974 450.014C378.177 460.287 393.438 471.896 406.266 470.72C418.124 469.632 419.777 465.066 421.558 458.064" stroke="#001D3D" stroke-width="2" stroke-linecap="round" stroke-linejoin="round"/>
<path d="M429.139 446.138C427.811 447.839 415.193 468.273 411.7 458.661" stroke="#001D3D" stroke-width="2" stroke-linecap="round" stroke-linejoin="round"/>
<path d="M405.636 446.735C410.958 452.332 423.821 472.344 436.722 471.78C438.592 471.698 436.11 466.033 435.964 465.221" stroke="#001D3D" stroke-width="2" stroke-linecap="round" stroke-linejoin="round"/>
<path d="M440.511 446.735C443.453 460.285 449.345 501.238 445.988 487.748C444.258 480.791 428.456 443.151 442.365 444.714C448.397 445.391 463.797 452.315 459.762 458.661C457.493 462.229 443.431 463.477 449.611 461.046" stroke="#001D3D" stroke-width="2" stroke-linecap="round" stroke-linejoin="round"/>
<path d="M469.325 456.275C471.197 463.942 473 471.604 474.631 479.299C474.911 480.619 474.535 479.531 474.041 478.804C470.941 474.229 466.694 466.078 466.838 460.947C466.977 456.085 475.481 452.77 479.939 456.275" stroke="#001D3D" stroke-width="2" stroke-linecap="round" stroke-linejoin="round"/>
<path d="M493.586 465.221C493.389 470.833 498.567 490.479 510.856 484.766C512.617 483.947 516.961 481.949 517.091 480.129C517.158 479.157 514.914 478.936 514.058 478.936C511.806 478.936 511.242 476.738 510.267 475.358" stroke="#001D3D" stroke-width="2" stroke-linecap="round" stroke-linejoin="round"/>
<path d="M489.795 467.01C496.436 461.606 503.905 454.161 509.803 463.796C511.529 466.617 510.929 470.015 509.508 472.84C507.215 477.405 498.998 479.203 501.169 472.376" stroke="#001D3D" stroke-width="2" stroke-linecap="round" stroke-linejoin="round"/>
<path d="M530.739 456.275C535.935 462.807 556.952 480.412 543.164 488.444C538.753 491.013 535.874 491.002 530.907 490.863C523.894 490.664 527.6 489.267 529.98 484.899" stroke="#001D3D" stroke-width="2" stroke-linecap="round" stroke-linejoin="round"/>
<path d="M562.583 453.891C561.014 455.385 540.739 470.8 553.063 472.443C557.604 473.048 561.78 470.884 565.952 473.072C573.48 477.019 571.697 482.369 564.773 485.727C561.312 487.406 557.45 488.285 553.821 489.67C551.77 490.452 553.955 488.186 554.242 487.284" stroke="#001D3D" stroke-width="2" stroke-linecap="round" stroke-linejoin="round"/>
<path d="M545.144 447.331C543.384 448.348 524.428 456.622 527.116 461.643C530.507 467.978 531.627 460.18 532.255 457.468" stroke="#001D3D" stroke-width="2" stroke-linecap="round" stroke-linejoin="round"/>
<path d="M79.1412 252.268C82.5181 246.005 81.1351 240.548 81.1351 234.058C81.1351 232.797 80.8438 228.951 82.5307 228.262C85.1911 227.177 87.6772 226.452 90.8159 226.452C92.9027 226.452 94.9995 226.5 97.0854 226.452C99.1716 226.406 101.192 225.738 103.255 225.539C107.093 225.17 111.085 225.685 114.874 225.685C117.883 225.685 120.996 225.992 123.891 225.992C124.405 225.992 126.5 226.184 126.837 226.419C127.87 227.135 127.574 228.285 128.388 228.911" stroke="#001D3D" stroke-linecap="round" stroke-linejoin="round"/>
<path d="M128.19 229.466C128.321 231.315 128.37 233.908 129.337 235.713C129.963 236.884 129.464 238.441 129.59 239.686C129.834 242.08 129.381 244.411 129.381 246.733C129.381 249.846 129.579 252.921 129.579 256.016C129.579 258.673 126.278 258.229 123.666 257.856C121.411 257.533 118.383 258.179 116.032 258.203C111.496 258.247 106.94 258.515 102.397 258.515C98.6028 258.515 95.7853 257.649 92.2914 256.606C90.4258 256.05 89.2981 256.173 87.294 256.173C85.396 256.173 83.8351 255.939 81.9324 256.406C80.8192 256.681 78.8259 256.445 78.1926 255.548C77.4333 254.473 78.9428 254.006 78.9428 253.127C78.9428 252.388 78.8246 250.276 79.1414 252.268" stroke="#001D3D" stroke-linecap="round" stroke-linejoin="round"/>
<path d="M101.779 233.528C101.779 233.528 102.573 233.839 103.368 234.464C104.162 234.933 105.834 234.698 107.24 234.698C107.98 234.698 108.761 234.245 109.424 234.014C110.768 233.543 109.967 234.426 109.645 234.933C109.289 235.493 109.695 236.533 110.34 236.885C111.403 237.464 112.455 236.964 113.495 236.556C113.927 236.385 113.808 236.306 113.942 236.538C114.123 236.852 114.091 237.306 114.091 237.648C114.091 238.427 114.026 239.72 113.495 240.398C112.797 241.292 112.091 241.869 110.969 242.525C109.86 243.172 108.394 244.303 106.92 244.303C104.039 244.303 100.981 243.81 99.5396 241.605C98.9286 240.67 97.8077 239.906 97.8077 238.837C97.8077 237.945 97.4326 236.877 97.8077 236.025C98.2622 234.994 99.3962 234.014 98.9992 234.014C99.2017 234.058 100.985 233.214 101.779 233.528Z" stroke="#001D3D" stroke-linecap="round" stroke-linejoin="round"/>
<path d="M105.056 232.981C106.173 232.654 108.724 231.973 109.325 230.912C109.789 230.09 108.255 229.935 107.439 229.935C106.448 229.935 105.275 231.011 105.011 231.692C104.865 232.071 104.726 232.458 104.581 232.842C104.512 233.027 104.605 233.16 104.653 233.332C104.69 233.462 106.205 232.837 106.148 232.658" stroke="#001D3D" stroke-linecap="round" stroke-linejoin="round"/>
<path d="M124.716 250.554L81.1548 251.306C76.5038 251.386 72.7869 254.374 72.7869 258.034C72.7869 261.75 76.6174 264.762 81.3427 264.762H124.914C129.903 264.762 133.948 261.582 133.948 257.657C133.948 253.672 129.781 250.466 124.716 250.554Z" stroke="#001D3D"/>
<path d="M90.7852 251.117C91.4447 251.921 92.0139 252.887 92.7708 253.631C93.1514 254.005 93.0902 253.929 93.8281 253.714C95.0599 253.355 96.4556 253.613 97.7406 253.613C98.8689 253.613 100.181 253.149 101.277 253.381C102.547 253.65 104.045 253.136 105.295 253.114C106.802 253.085 108.238 253.197 109.737 253.197C110.64 253.197 111.52 252.78 112.357 252.78C112.842 252.78 114.224 253.084 114.26 252.383C114.277 252.043 114.471 251.712 114.471 251.366C114.471 250.901 114.117 251.103 113.52 250.868" stroke="#001D3D" stroke-linecap="round" stroke-linejoin="round"/>
<path d="M305.905 80.4001C306.72 79.5847 308.281 78.0761 306.094 77.8092C305.598 77.749 305.136 77.5202 304.65 77.6933C303.152 78.2267 301.761 79.4013 301.761 80.7977C301.761 83.0282 304.872 83.5112 307.133 83.4823C310.944 83.4337 312.103 80.5125 313.451 78.1463C314.811 75.7561 316.322 73.4046 317.732 71.0315C319.328 68.3463 321.947 66.2071 323.604 63.5466C324.315 62.4058 325.242 61.401 326.157 60.3593C327.576 58.7433 328.586 57.1132 329.601 55.3215C330.434 53.8515 331.357 52.5092 332.378 51.1178C332.791 50.5552 332.634 49.6932 333.423 50.2947C334.023 50.7514 334.974 51.0515 335.781 51.1676C339.304 51.6749 342.543 52.212 346.172 51.9851C349.841 51.7556 353.509 51.342 357.121 50.7918C358.349 50.6047 357.825 50.83 357.245 51.416C356.263 52.4101 355.426 53.4636 354.484 54.4707C353.256 55.7842 352.826 57.3662 352.1 58.8679C351.301 60.5186 350.351 62.0952 349.589 63.7731C348.115 67.0155 345.966 69.9727 343.305 72.6942C341.764 74.2714 339.859 77.0259 336.972 76.9145C332.506 76.7418 335.523 69.8263 337.655 68.4739C338.806 67.7459 340.063 68.5297 340.203 69.5069C340.394 70.8495 339.808 72.6896 338.152 73.3461C336.403 74.0386 335.063 73.9554 336.407 72.1694C337.222 71.0887 337.706 72.278 338.04 71.7496" stroke="#001D3D" stroke-width="2" stroke-linecap="round" stroke-linejoin="round"/>
<path d="M642.544 321.31C643.361 320.495 644.922 318.986 642.733 318.719C642.237 318.659 641.775 318.431 641.289 318.603C639.793 319.136 638.402 320.311 638.402 321.707C638.402 323.937 641.513 324.422 643.772 324.391C647.583 324.344 648.744 321.422 650.09 319.056C651.45 316.666 652.961 314.315 654.371 311.941C655.969 309.256 658.588 307.117 660.245 304.456C660.954 303.316 661.881 302.311 662.796 301.27C664.215 299.653 665.227 298.022 666.242 296.232C667.073 294.761 667.996 293.419 669.017 292.028C669.43 291.465 669.275 290.603 670.064 291.205C670.662 291.662 671.615 291.961 672.42 292.078C675.943 292.585 679.184 293.122 682.811 292.895C686.48 292.666 690.148 292.252 693.76 291.702C694.988 291.515 694.466 291.74 693.886 292.325C692.904 293.32 692.065 294.374 691.123 295.381C689.898 296.694 689.465 298.277 688.739 299.778C687.942 301.428 686.99 303.005 686.228 304.683C684.754 307.926 682.605 310.882 679.944 313.604C678.403 315.182 676.5 317.935 673.613 317.825C669.145 317.652 672.162 310.737 674.297 309.384C675.445 308.655 676.702 309.44 676.842 310.417C677.035 311.76 676.449 313.599 674.791 314.256C673.042 314.948 671.702 314.865 673.048 313.079C673.861 311.998 674.345 313.188 674.681 312.659" stroke="#001D3D" stroke-width="2" stroke-linecap="round" stroke-linejoin="round"/>
<path d="M606.55 180.788C602.811 175.46 603.033 173.938 603.885 168.575C604.354 165.622 604.533 162.738 605.483 159.832C607.182 154.637 607.733 147.642 602.415 143.459C591.949 135.228 572.461 146.933 578.363 157.376C580.607 161.35 584.488 164.292 587.292 168.041C588.416 169.544 589.046 171.174 590.508 172.579C591.909 173.925 593.651 175.603 593.651 177.275C593.651 178.688 593.114 180.521 594.385 181.769C596.141 183.496 595.517 182.609 598.115 182.609C599.902 182.609 602.537 181.491 603.976 180.585C605.005 179.937 605.558 181.809 605.558 180.007C605.558 178.46 604.924 179.747 606.219 179.747" stroke="#001D3D" stroke-linecap="round" stroke-linejoin="round"/>
<path d="M598.28 185.73C601.817 184.9 611.608 183.049 609.341 185.34C606.607 188.104 605.438 186.718 602.083 187.305C600.368 187.605 598.695 191.769 600.595 191.857C603.309 191.983 605.108 189.112 607.871 189.112C610.386 189.112 610.207 191.715 608.699 192.637C606.706 193.856 604.417 192.546 603.076 194.444C600.957 197.444 606.743 196.956 608.386 196.251C610.041 195.541 611.614 194.433 612.834 193.793" stroke="#001D3D" stroke-linecap="round" stroke-linejoin="round"/>
<path d="M606.55 179.942C606.505 180.169 606.458 181.698 605.682 181.698C605.263 181.698 605.07 181.498 604.69 181.666C604.24 181.862 603.818 182.323 603.389 182.593C603.011 182.831 601.886 182.802 601.671 183.1C601.319 183.584 600.601 183.85 599.935 183.909C599.069 183.984 598.747 184.326 597.826 184.165C597.544 184.117 597.515 183.974 597.251 183.974C596.845 183.974 596.668 184.128 596.361 183.858C596.019 183.56 595.464 183.421 595.299 182.969C595.076 182.355 594.259 182.032 595.468 182.414" stroke="#001D3D" stroke-linecap="round" stroke-linejoin="round"/>
<path d="M590.591 154.189C592.069 154.195 593.293 154.27 593.797 155.504C594.141 156.344 594.147 157.169 594.147 158.04C594.147 158.888 593.484 159.569 593.484 160.367C593.484 161.422 594.558 161.249 595.464 161.571C596.322 161.874 596.942 162.127 597.408 162.807C597.867 163.478 597.52 164.778 597.459 165.509C597.406 166.137 597.026 167.474 597.579 168.005C597.877 168.294 599.52 168.74 598.447 168.105" stroke="#001D3D" stroke-linecap="round" stroke-linejoin="round"/>
<path d="M578.105 165.96C576.919 166.578 575.712 167.098 574.388 167.488C573.833 167.651 573.102 167.944 573.226 167.261" stroke="#001D3D" stroke-linecap="round" stroke-linejoin="round"/>
<path d="M573.805 156.985C571.705 157.383 569.621 157.831 567.539 158.272C567.194 158.345 567.989 157.657 568.017 157.636" stroke="#001D3D" stroke-linecap="round" stroke-linejoin="round"/>
<path d="M573.226 148.466C571.052 148.217 568.885 147.909 566.722 147.606C565.726 147.467 565.305 147.569 565.866 146.905" stroke="#001D3D" stroke-linecap="round" stroke-linejoin="round"/>
<path d="M584.968 139.427C583.25 139.189 581.762 138.96 580.209 138.35C579.481 138.064 578.782 137.721 578.021 137.49C577.119 137.216 577.1 137.299 578.105 136.825" stroke="#001D3D" stroke-linecap="round" stroke-linejoin="round"/>
<path d="M599.935 133.574C600.185 134.954 600.103 135.781 599.392 137.031C599.01 137.706 598.686 138.558 598.497 139.286C598.432 139.536 598.396 139.679 598.18 139.867C598.099 139.938 598.396 139.1 598.447 138.971" stroke="#001D3D" stroke-linecap="round" stroke-linejoin="round"/>
<path d="M612.586 139.102C612.037 140.539 611.254 141.918 610.785 143.357C610.547 144.086 610.695 144.13 611.098 143.394" stroke="#001D3D" stroke-linecap="round" stroke-linejoin="round"/>
<path d="M617.878 149.442C615.999 150.72 614.458 152.308 612.999 153.878C612.816 154.075 612.604 154.145 612.401 154.305C611.941 154.667 612.736 153.848 612.834 153.734" stroke="#001D3D" stroke-linecap="round" stroke-linejoin="round"/>
<path d="M196.854 279.891C199.603 289.631 202.699 299.393 204.519 309.28C205.533 314.803 203.303 306.834 203.026 305.707C202.426 303.267 201.737 301.107 201.737 298.612C201.737 293.593 201.566 288.517 201.093 283.492C200.762 279.974 195.267 269.498 202.212 278.238C209.294 287.148 214.293 296.999 219.099 306.72C219.762 308.059 220.679 309.328 221.404 310.614C221.801 311.316 214.368 305.603 211.504 304.373" stroke="#001D3D" stroke-width="2" stroke-linecap="round" stroke-linejoin="round"/>
<path d="M192.582 301.492C200.517 299.002 218.013 294.305 223.1 287.305C225.23 284.373 224.816 285.728 218.827 286.611" stroke="#001D3D" stroke-width="2" stroke-linecap="round" stroke-linejoin="round"/>
<path d="M216.385 268.85C222.51 278.385 226.944 288.536 228.627 299.119C228.782 300.099 229.073 301.177 229.949 301.866C230.112 301.994 227.011 297.431 226.151 296.212" stroke="#001D3D" stroke-width="2" stroke-linecap="round" stroke-linejoin="round"/>
<path d="M216.385 268.371C221.134 270.608 238.575 278.869 227.202 284.131C226.204 284.593 225.035 285.02 224.32 285.759C222.809 287.323 222.626 287.781 223.71 285.652" stroke="#001D3D" stroke-width="2" stroke-linecap="round" stroke-linejoin="round"/>
<path d="M232.254 263.569C234.277 274.347 237.747 286.191 237.747 297.172C237.747 299.597 237.233 295.106 236.528 293.812" stroke="#001D3D" stroke-width="2" stroke-linecap="round" stroke-linejoin="round"/>
<path d="M246.294 282.77C249.644 290.627 251.368 295.256 241.547 297.546C238.191 298.328 242.244 294.494 243.106 294.025C246.044 292.426 248.969 287.276 245.682 284.691C244.375 283.663 241.246 284.963 240.325 283.731C238.969 281.917 242.008 278.484 243.852 277.598C249.15 275.051 248.483 278.64 246.294 277.491" stroke="#001D3D" stroke-width="2" stroke-linecap="round" stroke-linejoin="round"/>
<path d="M429.639 136.991C431.662 145.363 439.993 169.811 435.146 162.188C434.624 161.367 434.189 160.67 434.144 159.739C433.984 156.291 433.656 152.687 432.142 149.415C430.877 146.677 431.141 143.84 431.141 140.928C431.141 140.345 429.881 135.754 430.001 135.722C431.276 135.388 436.533 140.412 437.482 141.278C442.288 145.658 447.147 150.691 450.581 155.823C452.349 158.465 452.882 159.411 448.662 159.826" stroke="#001D3D" stroke-width="2" stroke-linecap="round" stroke-linejoin="round"/>
<path d="M429.139 153.92C433.837 152.046 438.312 150.548 443.156 149.196" stroke="#001D3D" stroke-width="2" stroke-linecap="round" stroke-linejoin="round"/>
<path d="M442.656 137.384C447.466 143.051 452.046 149.082 457.645 154.314C458.444 155.06 460.121 156.416 460.121 154.664C460.121 152.273 458.438 149.803 457.674 147.533C456.452 143.903 455.316 140.257 454.281 136.597C453.283 133.065 453.986 134.383 455.671 137.034C458.465 141.428 461.404 145.429 465.293 149.327C467.914 151.953 468.186 150.491 468.186 148.19C468.186 144.01 465.592 140.573 463.681 136.816C461.64 132.803 461.776 127.324 459.453 123.67C458.55 122.249 458.424 126.753 458.174 128.329" stroke="#001D3D" stroke-width="2" stroke-linecap="round" stroke-linejoin="round"/>
<path d="M469.687 123.211C469.815 123.673 471.679 135.136 474.972 133.841C476.414 133.274 476.767 131.538 478.253 130.954C480.661 130.007 483.261 131.684 484.204 133.316C486.7 137.633 483.828 142.632 479.311 145.259C473.051 148.897 475.194 142.347 475.194 140.534" stroke="#001D3D" stroke-width="2" stroke-linecap="round" stroke-linejoin="round"/>
<path d="M472.691 122.424C471.791 124.36 470.152 133.349 469.66 129.86C469.355 127.707 469.896 126.07 470.189 123.998C470.882 119.085 475.661 123.038 473.692 120.455" stroke="#001D3D" stroke-width="2" stroke-linecap="round" stroke-linejoin="round"/>
<path d="M439.306 381.026C439.139 380.786 431.918 371.004 432.542 370.723C433.41 370.334 435.026 370.712 436.047 370.411C439.06 369.522 441.487 367.688 443.967 366.171C446.576 364.575 450.15 377.096 450.945 379.733C451.906 382.922 454.407 387.164 449.727 389.006C445.506 390.666 439.954 390.164 435.346 390.084C427.83 389.953 422.636 380.249 421.757 375.419C421.119 371.903 414.929 360.616 421.574 358.358C423.355 357.754 426.378 358.167 428.307 358.167C431.07 358.167 433.481 356.873 436.291 356.873C440.759 356.873 442.111 361.264 438.21 356.441" stroke="#001D3D" stroke-width="2" stroke-linecap="round" stroke-linejoin="round"/>
<path d="M451.92 359.892C452.699 362.126 455.206 374.52 461.79 371.346C463.043 370.742 463.956 369.277 464.411 368.232C465.623 365.44 465.879 363.109 463.161 360.971C461.126 359.369 457.194 356.101 454.234 356.011C446.899 355.789 453.37 362.252 452.467 361.187" stroke="#001D3D" stroke-width="2" stroke-linecap="round" stroke-linejoin="round"/>
<path d="M453.016 340.053C458.434 346.787 466.607 354.195 469.894 361.953C470.315 362.943 470.329 363.616 471.114 364.541C472.297 365.937 472.856 367.965 473.978 365.835C475.6 362.751 479.296 360.013 482.204 357.641C485.79 354.711 486.28 355.58 479.888 355.58" stroke="#001D3D" stroke-width="2" stroke-linecap="round" stroke-linejoin="round"/>
<path d="M490.856 337.896C490.175 339.105 479.843 355.185 489.819 351.53C491.805 350.804 493.83 349.672 493.568 347.815C493.314 346.026 491.415 344.621 490.429 343.071C489.872 342.197 487.648 337.977 488.418 339.189C490.709 342.793 493.785 349.21 497.193 351.889C501.163 355.012 503.542 351.731 499.63 349.972" stroke="#001D3D" stroke-width="2" stroke-linecap="round" stroke-linejoin="round"/>
<path d="M496.888 339.621C512.153 358.664 492.838 337.298 497.284 333.56C501.588 329.941 506.672 336.888 508.282 339.093C511.088 342.935 513.851 352.903 509.5 342.64" stroke="#001D3D" stroke-width="2" stroke-linecap="round" stroke-linejoin="round"/>
<path d="M516.081 323.232C515.823 323.952 507.636 342.072 513.765 340.388C516.372 339.672 518.988 338.052 520.377 336.195C521.981 334.05 522.729 331.11 521.566 328.742C520.773 327.129 519.915 325.405 518.823 323.902C516.229 320.33 523.223 331.369 525.313 335.141C528.374 340.663 535.748 360.023 518.366 356.179C510.785 354.502 517.925 345.228 517.179 345.228" stroke="#001D3D" stroke-width="2" stroke-linecap="round" stroke-linejoin="round"/>
<path d="M300.245 234.119C302.971 233.531 305.295 232.936 307.21 231.241C307.966 230.573 308.068 229.719 308.454 228.91C308.956 227.858 308.332 226.512 307.905 225.501C307.562 224.694 309.432 224.241 310.101 224.207C311.249 224.148 312.126 224.724 313.229 224.774C314.555 224.836 315.97 225.17 316.889 225.984C317.513 226.536 318.348 226.665 319.038 227.145C319.692 227.599 320.211 228.392 320.684 228.974C322.055 230.657 322.441 232.621 322.839 234.548C323.03 235.47 323.146 236.476 322.949 237.41C322.713 238.522 322.963 239.594 322.404 240.662C322.018 241.399 321.4 242.376 320.52 242.812C319.617 243.258 318.779 243.42 318.548 244.347C318.066 246.284 319.302 248.18 318.826 250.135C318.405 251.87 315.488 252.136 313.685 252.414C312.441 252.606 310.178 252.905 308.978 252.391C306.744 251.437 305.126 250.242 303.469 248.722C302.001 247.376 301.446 245.406 301.253 243.684C301.054 241.925 301.052 240.016 301.103 238.238C301.135 237.058 301.572 235.873 301.715 234.696C301.831 233.734 302.219 233.657 301.593 234.89" stroke="#001D3D" stroke-linecap="round" stroke-linejoin="round"/>
<path d="M316.039 225.357C316.96 223.49 317.972 221.624 318.678 219.699C318.995 218.832 319.07 217.916 319.467 217.072C319.926 216.09 320.154 214.98 320.351 213.954C320.491 213.217 320.56 211.914 321.418 211.45C322.044 211.111 322.4 210.337 323.071 209.931C323.933 209.408 325.155 208.922 325.765 208.223C326.364 207.539 327.003 206.122 326.499 205.331C326.22 204.89 326.257 204.415 325.982 203.983C325.624 203.419 325.301 202.961 325.031 202.351C324.793 201.816 324.047 200.752 324.915 200.371C327.039 199.444 327.186 200.905 327.846 202.239C328.186 202.928 328.237 203.769 328.554 204.485C328.769 204.976 329.152 204.621 329.444 204.902C329.885 205.326 329.906 205.857 330.239 206.314C330.737 207 330.152 208.393 329.9 209.064C329.43 210.307 328.948 211.432 328.253 212.627C326.464 215.701 323.547 218.29 321.548 221.27C320.786 222.406 320.178 223.547 319.806 224.801C319.595 225.514 318.977 226.193 318.977 226.946C318.977 227.634 318.761 227.986 319.221 226.898" stroke="#001D3D" stroke-linecap="round" stroke-linejoin="round"/>
<path d="M325.588 202.152C324.029 202.341 322.329 202.413 320.936 202.961C320.743 203.036 321.042 202.84 321.18 202.827C323.047 202.654 325.086 201.345 326.785 200.708C328.048 200.235 329.778 199.169 331.219 199.169C331.636 199.169 329.833 200.082 329.627 200.227" stroke="#001D3D" stroke-linecap="round" stroke-linejoin="round"/>
<path d="M323.996 204.271C325.73 203.478 328.753 202.618 330.022 201.286C330.146 201.156 330.237 200.982 330.416 200.902C331.046 200.617 329.932 200.934 329.749 200.998" stroke="#001D3D" stroke-linecap="round" stroke-linejoin="round"/>
<path d="M325.22 205.523C327.302 204.896 331.107 204.34 332.252 202.538C332.419 202.279 332.051 202.346 331.831 202.346" stroke="#001D3D" stroke-linecap="round" stroke-linejoin="round"/>
<path d="M327.424 205.331C327.291 207.537 327.32 209.784 325.716 211.674C324.935 212.596 324.392 213.21 324.118 214.29C323.825 215.444 323.504 216.408 322.833 217.462C322.172 218.503 321.396 219.352 320.745 220.351C320.408 220.867 319.576 221.366 319.739 221.988C319.82 222.302 319.623 222.583 319.493 222.876C319.111 223.744 318.395 224.511 317.724 225.261C317.271 225.771 317.275 226.686 317.875 225.742" stroke="#001D3D" stroke-linecap="round" stroke-linejoin="round"/>
<path d="M317.507 223.143C318.613 223.331 320.292 223.913 321.424 223.913C321.447 223.913 320.463 222.98 320.322 222.853" stroke="#001D3D" stroke-linecap="round" stroke-linejoin="round"/>
<path d="M318.243 219.195C319.804 219.719 321.369 220.239 322.921 220.784C323.284 220.911 323.264 220.93 323.138 220.832C322.87 220.62 322.642 220.391 322.404 220.157" stroke="#001D3D" stroke-linecap="round" stroke-linejoin="round"/>
<path d="M319.71 216.595C321.593 217.056 323.471 217.551 325.376 217.954C325.59 217.999 325.889 218.09 325.683 217.922C325.273 217.588 324.801 217.292 324.364 216.98" stroke="#001D3D" stroke-linecap="round" stroke-linejoin="round"/>
<path d="M320.69 213.322C322.833 214.146 324.968 215.033 327.165 215.767C327.527 215.887 327.647 215.976 327.574 215.751C327.472 215.446 327.324 215.156 327.18 214.862" stroke="#001D3D" stroke-linecap="round" stroke-linejoin="round"/>
<path d="M323.384 211.012C323.579 211.085 329.505 213.613 329.015 212.647" stroke="#001D3D" stroke-linecap="round" stroke-linejoin="round"/>
<path d="M324.608 209.47C326.397 209.801 328.204 210.102 329.995 210.337" stroke="#001D3D" stroke-linecap="round" stroke-linejoin="round"/>
<path d="M326.568 207.931C327.383 207.961 328.2 207.993 329.015 208.027" stroke="#001D3D" stroke-linecap="round" stroke-linejoin="round"/>
<path d="M310.408 236.815C309.556 237.08 304.317 238.105 304.286 239.244C304.274 239.688 304.286 240.134 304.353 240.575C304.565 241.947 305.779 242.665 307.265 243.319C309.155 244.152 311.19 244.178 313.25 243.704C315.207 243.255 316.482 241.551 315.697 240.089C315.537 239.786 316.098 239.723 315.732 239.371C315.376 239.029 315.142 239.229 314.569 239.319" stroke="#001D3D" stroke-linecap="round" stroke-linejoin="round"/>
<path d="M307.836 240.377C308.81 238.439 310.025 236.503 310.591 234.456C310.739 233.921 310.922 233.47 311.292 232.985C312.073 231.962 312.76 230.87 313.223 229.733C313.662 228.654 313.691 227.589 314.27 226.534C314.478 226.158 315.712 225.029 315.181 225.551" stroke="#001D3D" stroke-linecap="round" stroke-linejoin="round"/>
<path d="M317.507 226.513C317.053 228.744 316.37 230.878 315.889 233.081C315.622 234.303 315.181 235.325 315.181 236.612C315.181 237.533 315.6 238.3 315.332 239.223C315.022 240.284 314.744 239.762 314.201 239.029" stroke="#001D3D" stroke-linecap="round" stroke-linejoin="round"/>
<path d="M316.283 226.513C315.431 227.906 313.589 230.194 313.589 231.953C313.589 232.952 313.673 234.014 313.583 235.029C313.477 236.234 312.28 237.8 311.562 238.837C311.325 239.181 311.015 239.448 310.869 239.821C310.686 240.288 310.816 240.316 310.408 239.8" stroke="#001D3D" stroke-linecap="round" stroke-linejoin="round"/>
<path d="M307.468 238.356C309.554 239.528 313.233 241.922 315.793 239.853C316.193 239.531 316.769 238.842 316.99 238.431C317.293 237.869 316.313 238.345 315.671 238.452" stroke="#001D3D" stroke-linecap="round" stroke-linejoin="round"/>
<path d="M309.918 236.623C311.107 236.593 313.51 236.845 314.665 236.377C314.703 236.361 314.575 236.388 314.543 236.409C314.429 236.481 314.191 236.364 314.079 236.334" stroke="#001D3D" stroke-linecap="round" stroke-linejoin="round"/>
<path d="M311.264 233.061C312.136 233.241 315.295 234.3 315.427 233.157" stroke="#001D3D" stroke-linecap="round" stroke-linejoin="round"/>
<path d="M312.733 230.171C313.815 230.728 318.204 233.299 317.507 230.557" stroke="#001D3D" stroke-linecap="round" stroke-linejoin="round"/>
<path d="M313.957 228.824C315.059 229.049 316.161 229.273 317.263 229.498" stroke="#001D3D" stroke-linecap="round" stroke-linejoin="round"/>
<path d="M319.345 228.824C320.707 229.832 323.427 232.181 323.506 233.948C323.571 235.389 323.506 236.781 323.506 238.238C323.506 239.298 323.764 240.428 323.628 241.437C323.451 242.76 320.869 242.777 321.485 244.331C321.693 244.849 321.514 245.156 322.091 245.529C322.591 245.85 322.953 246.223 323.138 246.733C323.571 247.922 322.709 248.995 321.67 249.814C321.018 250.326 320.174 251.355 319.406 251.691C319.025 251.857 318.249 251.739 317.814 251.739C317.409 251.739 316.594 251.945 316.228 252.076C315.691 252.268 315.006 251.929 314.325 252.124" stroke="#001D3D" stroke-linecap="round" stroke-linejoin="round"/>
<path d="M300.245 234.409C300.739 235.697 301.107 236.77 301.932 237.875C302.272 238.327 302.225 238.74 302.075 239.271C301.902 239.886 301.328 241.333 301.776 241.967C302.463 242.94 302.449 243.97 302.449 245.048C302.449 246.085 304.514 246.538 305.191 247.07C306.195 247.86 305.76 248.871 307.415 249.214C307.777 249.289 308.342 249.294 308.625 249.477C308.84 249.614 309.09 249.961 309.373 250.001C309.956 250.084 310.737 249.993 311.264 250.177C311.705 250.33 312.026 250.553 312.426 250.729C312.87 250.922 313.475 250.705 313.957 250.895C315.604 251.541 314.868 250.925 313.713 250.199" stroke="#001D3D" stroke-linecap="round" stroke-linejoin="round"/>
<path d="M178.415 186.05C175.144 189.34 161.098 202.515 173.066 205.496C176.78 206.421 181.615 204.293 185.618 204.602C191.279 205.035 194.461 208.82 195.854 212.751C197.458 217.276 188.609 225.325 192.863 227.757C200.149 231.925 210.642 224.877 216.661 230.474C220.075 233.646 216.487 238.254 218.601 230.773" stroke="#001D3D" stroke-linecap="round" stroke-linejoin="round"/>
<path d="M342.705 134.766C345.859 138.052 353.362 145.454 356.184 149.674C358.587 153.267 355.56 153.122 352.982 151.695C349.902 149.988 350.335 146.358 351.213 143.844C354.182 135.355 373.391 127.552 375.56 140.597C376.323 145.179 371.114 152.884 364.019 151.066C354.651 148.665 355.249 137.422 362.334 133.243C369.581 128.968 381.458 133.88 381.458 140.862C381.458 148.614 369.742 151.014 365.198 144.175C361.069 137.959 368.386 131.457 376.235 130.526C379.12 130.184 386.577 132.806 381.372 134.17" stroke="#001D3D" stroke-linecap="round" stroke-linejoin="round"/>
<path d="M501.167 193.801C496.257 197.639 480.742 206.584 493.795 210.067C501.393 212.094 508.425 208.772 513.131 204.237C518.323 199.233 519.206 191.32 510.939 188.071C504.513 185.543 498.973 181.482 493.586 187.839" stroke="#001D3D" stroke-linecap="round" stroke-linejoin="round"/>
<path d="M668.73 246.277C659.354 250.669 645.119 255.974 659.631 260.124C661.863 260.762 663.314 260.347 665.276 259.263C672.53 255.253 672.957 253.648 672.52 247.47C672.231 243.378 664.626 244.312 661.147 245.681C656.02 247.697 652.442 251.733 650.364 255.818C647.569 261.313 662.019 260.977 664.012 254.36C665.262 250.212 659.228 244.318 655.083 249.39C649.59 256.11 657.972 262.121 663.253 255.089C668.314 248.354 656.492 245.577 653.312 253.432C649.135 263.761 673.973 252.546 664.939 248.994C659.553 246.875 650.46 260.323 660.389 256.977C672.447 252.913 658.958 246.923 658.958 256.414C658.958 264.116 675.154 252.938 664.601 249.921C662.188 249.23 659.808 255.293 661.527 256.646C664.516 258.996 669.712 252.908 669.446 250.716C668.305 241.305 656.594 265.231 670.542 254.26C673.727 251.755 673.597 247.225 668.309 249.887C665.189 251.458 663.213 258.125 669.108 256.579C674.77 255.095 674.768 246.848 668.688 248.762C664.975 249.929 663.632 254.062 659.631 253.432" stroke="#001D3D" stroke-linecap="round" stroke-linejoin="round"/>
<path d="M586.844 307.697C585.279 309.055 560.296 333.299 572.86 320.947C575.732 318.124 578.373 315.345 582.295 313.362C584.714 312.139 587.042 311.384 589.119 309.75C591.388 307.966 588.17 308.083 587.645 311.805C587.186 315.046 587.538 329.196 586.844 329.164C582.16 328.947 579.091 325.322 574.754 324.128C572.433 323.49 565.547 324.409 567.468 323.2C572.164 320.245 586.548 311.773 582.295 315.118C579.072 317.65 572.453 327.174 574.714 324.062C576.32 321.849 580.668 314.641 580.02 315.847C578.688 318.33 576.369 322.583 576.566 325.32C576.755 327.92 583.319 321.525 583.728 320.882C586.769 316.096 580.475 326.859 582.715 324.294C584.734 321.985 591.561 316.114 586.676 321.876C585.606 323.136 591.736 317.318 590.636 318.563C590.317 318.923 587.538 322.589 589.162 321.312C594.974 316.741 586.409 321.494 585.328 320.22" stroke="#001D3D" stroke-linecap="round" stroke-linejoin="round"/>
<path d="M536.045 406.684C538.7 403.711 553.866 390.597 541.395 390.022C539.287 389.924 534.941 389.385 533.18 390.517C528.996 393.211 530.81 400.475 536.468 401.284C543.967 402.357 550.997 394.291 542.869 391.181C534.378 387.932 514.335 400.98 522.987 406.353C540.023 416.931 555.429 386.192 533.392 390.616C513.404 394.631 531.013 410.823 540.088 400.39C549.808 389.219 519.842 389.123 525.136 401.615C527.746 407.777 536.317 404.803 537.856 399.828C540.113 392.53 530.887 395.544 530.739 400.589C530.578 405.996 541.17 396.212 534.823 396.646C530.237 396.961 529.785 401.914 526.189 401.914" stroke="#001D3D" stroke-linecap="round" stroke-linejoin="round"/>
<path d="M234.283 350.631C235.814 356.094 238.833 372.624 238.833 367.029C238.833 363.168 235.08 359.562 234.326 355.699C234.062 354.35 234.606 350.358 233.145 349.438C232.147 348.81 241.588 354.59 244.096 355.699C248.677 357.725 251.958 361.508 255.934 357.489C257.843 355.559 263.458 355.292 264.231 354.806C269.846 351.272 269.332 346.002 270.635 341.388C271.098 339.744 269.919 347.006 269.919 349.141C269.919 351.872 270.545 355.487 271.476 358.051C272.8 361.694 272.269 351.416 271.013 349.438C268.972 346.228 269.161 343.377 269.161 339.898C269.161 338.524 281.834 355.744 279.606 357.059C278.675 357.607 266.264 354.914 262.505 355.866C259.266 356.684 256.308 357.639 253.239 358.848C252.399 359.177 251.012 360.379 251.553 360.039C253.478 358.829 259.368 355.517 257.028 356.131C253.816 356.972 250.661 359.417 247.762 360.768C242.297 363.315 240.528 362.96 238.241 367.328C237.912 367.957 241.992 367.877 242.791 368.057C248.53 369.346 252.135 365.832 257.197 364.214C263.731 362.127 271.243 357.84 278.258 357.191C283.554 356.7 275.502 355.241 275.225 354.806" stroke="#001D3D" stroke-linecap="round" stroke-linejoin="round"/>
<path d="M523.914 121.051C538.204 117.449 561.347 113.305 574.124 105.083C576.442 103.592 580.032 102.161 579.221 99.2858C576.167 88.4837 569.528 85.9504 556.431 87.0947C549.169 87.7293 542.198 92.9985 535.455 95.1448C528.514 97.3545 521.57 100.258 515.237 103.427C508.827 106.635 512.541 108.223 512.541 113.763C512.541 116.809 514.855 121.051 518.986 121.051C520.869 121.051 526.266 119.859 520.923 119.859C516.729 119.859 510.222 120.358 506.475 118.799C503.615 117.607 509.262 115.262 510.604 115.121C515.396 114.619 505.111 118.306 504.074 118.567C501.94 119.104 511.775 113.242 506.306 114.624C500.38 116.123 509.177 112.105 511.025 111.378C513.111 110.557 511.291 111.856 511.783 111.179C512.57 110.096 517.126 106.115 513.005 109.357C511.625 110.442 516.119 107.506 517.638 106.541C520.496 104.724 516.87 107.481 516.164 107.932C512.911 110.014 512.149 108.334 509.508 109.258C508.404 109.643 505.717 110.923 505.717 109.423C505.717 106.835 517.329 105.656 519.45 105.58C532.436 105.116 541.523 100.61 553.483 98.2589C559.239 97.1273 565.529 95.4976 570.922 93.4884C574.921 91.9984 582.935 87.3331 587.182 88.2873C588.849 88.6623 563.103 100.444 570.501 96.6026C576.619 93.4247 583.636 91.1932 574.46 97.1657C567.108 101.95 580.042 96.3771 581.073 96.7019C582.927 97.2851 569.658 103.246 579.768 99.584C583.634 98.1836 586.844 98.1143 586.844 94.8135C586.844 90.3331 588.404 85.0225 581.158 87.0947C572.797 89.4855 566.088 94.5963 557.444 96.6026C551.483 97.9854 545.679 99.7319 539.836 101.373C533.056 103.277 520.787 105.406 515.953 110.053C513.377 112.529 508.789 122.179 518.27 118.003C526.967 114.173 528.35 106.423 533.011 100.313C535.327 97.2779 528.978 106.723 528.041 110.185C526.965 114.167 531.731 118.749 537.183 118.003C543.162 117.186 549.454 110.69 551.589 106.74C561.849 87.7528 543.237 106.168 548.513 110.318C554.112 114.721 562.644 103.056 563.762 100.18C565.108 96.7154 565.899 92.4445 567.511 89.1486C569.601 84.874 556.254 89.6883 555 90.1756C548.059 92.8739 543.211 96.4734 538.488 101.24C536.778 102.966 529.917 111.088 534.613 112.935C540.907 115.41 548.633 107.717 548.808 103.725C549.401 90.202 535.244 97.1326 526.693 102.433C521.411 105.708 526 112.254 526.947 111.51" stroke="#001D3D" stroke-linecap="round" stroke-linejoin="round"/>
<path d="M332.091 444.251C331.762 444.459 319.286 452.922 319.286 450.513C319.286 449.103 320.666 447.593 321.896 446.671C324.329 444.848 333.943 443.446 331.628 447.895C330.075 450.882 323.728 455.281 321.939 449.653C321.197 447.313 326.297 442.624 329.396 444.616C332.811 446.815 325.468 449.614 323.16 448.625C319.04 446.858 323.988 440.564 327.962 441.868C332.118 443.228 326.403 446.952 324.508 447.697C320.08 449.438 320.701 446.624 318.442 444.848" stroke="#001D3D" stroke-linecap="round" stroke-linejoin="round"/>
<path d="M126.619 443.655C130.99 449.32 139.314 455.198 130.831 460.352C128.643 461.683 115.737 466.999 116.51 460.816C117.451 453.288 131.717 453.121 132.6 446.372C133.474 439.699 113.21 442.213 108.591 437.693C105.697 434.861 103.364 428.585 104.042 424.972C104.306 423.563 108.843 420.832 108.38 423.381C107.533 428.047 88.4064 439.997 99.7451 443.92C107.347 446.551 109.309 439.891 114.909 438.289C126.445 434.989 109.18 459.46 109.18 453.197" stroke="#001D3D" stroke-linecap="round" stroke-linejoin="round"/>
<path d="M498.136 521.176C494.623 527.711 487.52 547.851 487.52 540.755C487.52 539.65 487.792 538.775 488.278 537.741C490.561 532.882 493.204 528.362 497.04 524.091C499.134 521.761 501.628 514.937 504.621 520.116C506.018 522.532 510.014 529.26 508.329 531.91C506.215 535.235 499.65 537.144 495.271 537.277C494.131 537.311 482.171 538.547 486.046 535.753C490.602 532.469 495.007 522.481 501.885 521.806C502.946 521.701 505.164 522.26 506.097 522.666C507.74 523.384 505.737 524.681 504.958 525.682C504.025 526.881 496.634 534.991 496.619 534.626C496.41 529.193 503.497 521.302 507.319 517.201C508.687 515.73 501.399 525.714 499.736 527.967C498.449 529.711 500.128 533.416 494.344 532.506" stroke="#001D3D" stroke-linecap="round" stroke-linejoin="round"/>
<path d="M263.094 41.7419C259.712 52.1501 256.697 62.0669 255.471 72.6838C255.347 73.7458 254.495 74.4324 255.345 75.2678C256.609 76.5111 259.953 68.6055 261.24 66.4887C265.321 59.7796 269.919 57.1318 269.919 48.8976C269.919 47.7095 269.919 40.8709 269.919 45.3859C269.919 49.2191 270.842 53.0077 270.509 56.8484C270.255 59.7513 266.713 67.5855 269.327 65.5281C273.367 62.3523 270.131 46.4297 263.81 46.0154C255.182 45.4499 251.023 60.1579 250.037 64.733C248.89 70.056 253.661 72.2846 258.925 68.1452C266.107 62.4951 267.667 50.8794 261.494 44.2597C253.013 35.1651 247.449 51.5748 246.751 55.5895C245.172 64.6712 251.62 67.5814 259.26 61.122C262.072 58.7462 267.738 54.6381 266.548 50.9515C264.967 46.0477 255.751 50.8096 253.912 52.9393C251.303 55.9591 251.336 63.481 255.554 65.6274C259.492 67.6314 263.324 59.3274 262.883 57.2459C261.013 48.4182 239.856 62.4318 250.374 67.4495C259.529 71.8166 265.597 52.2791 254.332 54.695C251.195 55.3679 243.747 62.0164 250.205 62.0164" stroke="#001D3D" stroke-linecap="round" stroke-linejoin="round"/>
<path d="M62.1722 211.691C58.7652 219.283 56.3122 224.129 47.6822 228.387C45.5153 229.457 42.6517 231.348 42.2062 233.489C41.2546 238.064 50.429 243.105 55.6431 241.738C66.6297 238.858 50.0047 230.306 48.2297 227.824C45.1394 223.502 56.3089 215.741 61.456 218.018C65.4626 219.79 67.2386 225.968 64.8679 228.983C61.4143 233.377 53.9913 233.551 48.1876 232.859C43.5655 232.309 34.3071 233.057 37.0252 238.459C40.4264 245.215 56.4789 241.674 58.8865 235.94C61.2307 230.358 48.5399 228.254 51.2625 223.021C53.1326 219.425 59.0378 214.937 64.2782 214.937C70.5553 214.937 64.2867 224.16 63.3515 225.605C59.2222 231.988 52.9039 232.624 44.9021 234.351C29.8421 237.598 46.066 238.056 47.0081 234.351" stroke="#001D3D" stroke-linecap="round" stroke-linejoin="round"/>
<path d="M43.9753 293.386C42.3658 298.152 37.6072 306.287 38.0783 311.474C38.2989 313.904 39.1432 306.671 39.5103 304.252C40.2103 299.642 41.0106 294.436 44.1438 290.404C44.6999 289.687 57.5592 302.312 58.718 304.384C61.8195 309.928 57.9365 308.873 53.0737 310.678C50.371 311.682 31.9284 316.801 31.9284 315.449C31.9284 314.031 35.4053 311.149 36.2248 309.95C38.7902 306.196 41.5425 301.482 42.6275 297.295C44.9444 288.347 43.217 306.759 43.217 308.161C43.217 309.012 43.6376 313.991 41.1111 313.991C37.949 313.991 43.2487 309.311 44.3124 306.968C45.4401 304.484 49.9295 297.164 48.8193 294.545C47.247 290.835 46.4604 302.199 46.2921 306.106C46.1778 308.756 44.548 313.177 47.1766 308.889C48.0142 307.523 50.7179 301.921 50.6727 302.33C50.2915 305.777 48.5245 309.331 48.5245 312.798C48.5245 316.347 50.9043 304.925 55.0113 303.455C56.0324 303.091 54.59 309.825 54.59 310.81C54.59 312.606 56.7804 303.914 56.7804 305.708C56.7804 306.209 55.8716 309.232 55.1798 308.294C52.3442 304.44 50.211 302.061 44.3965 300.673C41.7484 300.042 33.3311 300.475 36.0986 300.475C37.9175 300.475 40.7742 295.496 42.796 296.798C45.4781 298.523 41.797 304.033 40.9425 305.908C39.5434 308.978 38.6674 304.661 42.1219 304.981C45.7214 305.313 42.0491 315.767 44.0595 313.394C44.9926 312.294 47.819 306.863 47.7241 307.497C45.8889 319.767 46.2707 304.143 49.2828 307.697" stroke="#001D3D" stroke-linecap="round" stroke-linejoin="round"/>
<path d="M419.283 131.189C428.93 130.814 438.245 133.619 436.722 124.629C435.966 120.175 432.792 112.892 434.447 108.529C436.204 103.896 446.988 93.4482 437.775 90.1756C430.048 87.4313 419.95 95.1918 418.525 100.445C417.931 102.63 418.059 109.456 422.652 109.456C426.124 109.456 428.342 106.775 431.371 109.158C435.333 112.273 436.039 115.114 433.225 119.03C426.47 128.43 399.746 117.931 414.144 106.607C416.118 105.055 423.922 97.9367 427.622 99.9815C432.713 102.795 432.024 110.119 429.393 113.763C426.767 117.397 417.132 121.201 413.343 116.546C411.471 114.245 412.367 112.703 415.492 112.703" stroke="#001D3D" stroke-linecap="round" stroke-linejoin="round"/>
<path d="M500.057 186.993C500.947 186.71 528.683 175.941 527.394 181.859C526.701 185.034 527.165 187.996 527.732 191.168C527.947 192.381 531.708 201.836 527.941 201.836C520.923 201.836 514.074 199.063 507.048 200.112C504.137 200.547 498.335 202.117 498.12 198.456C497.957 195.71 495.056 183.37 501.952 184.576C507.636 185.568 507.882 182.021 503.849 189.909C503.275 191.029 499.51 199.442 500.14 199.052C506.449 195.155 509.907 187.66 515.684 183.117C519.291 180.281 513.107 191.667 512.357 193.09C508.518 200.357 518.329 186.931 519.433 185.602C524.282 179.771 520.6 190.212 519.854 191.93C517.612 197.097 524.506 187.449 527.268 186.165C536.419 181.913 527.772 196.601 525.835 193.553" stroke="#001D3D" stroke-linecap="round" stroke-linejoin="round"/>
<path d="M425.348 299.348C425.785 308.113 425.589 312.895 435.037 307.365C437.716 305.796 436.578 309.509 435.921 310.414C434.823 311.925 428.387 319.521 434.868 316.608C436.509 315.871 440.934 314.398 440.934 317.238C440.934 317.686 438.95 323.17 440.892 321.645C444.073 319.141 444.13 309.707 444.303 306.041C444.342 305.24 444.787 304.309 443.882 304.715C439.235 306.804 437.029 317.738 434.616 322.007C432.532 325.693 426.529 321.352 423.075 319.624C416.526 316.346 420.645 318.674 420.8 318.431" stroke="#001D3D" stroke-linecap="round" stroke-linejoin="round"/>
<path d="M373.033 377.465C373.005 377.744 372.114 394.861 372.275 386.542C372.324 384.003 372.23 381.463 372.275 378.924C372.401 371.711 374.037 375.057 378.004 378.028C379.821 379.39 386.493 382.331 385.416 385.084C385.099 385.896 374.387 387.363 372.696 387.868C371.427 388.247 363.934 391.956 363.934 391.777C363.934 387.345 365.918 382.551 366.589 378.127C368.006 368.763 376.245 393.833 376.782 387.503C376.908 386.013 376.825 377.142 376.825 379.354C376.825 381.001 378.339 389.783 378.339 384.024C378.339 382.721 378.339 381.418 378.339 380.115C378.339 379.501 378.766 382.443 379.057 381.872C380.106 379.806 378.339 375.652 378.339 380.711C378.339 386.392 376.316 382.302 371.895 382.302C368.113 382.302 365.948 393.2 367.894 390.65C369.597 388.416 366.241 379.322 367.725 383.992C368.502 386.437 370.37 383.735 371.517 382.831" stroke="#001D3D" stroke-linecap="round" stroke-linejoin="round"/>
</svg>
